<svg width="340" height="340" viewBox="0 0 340 340" fill="none" xmlns="http://www.w3.org/2000/svg">
<g clip-path="url(#clip0_262_88)">
<path d="M330 0H10C4.47715 0 0 4.47715 0 10V330C0 335.523 4.47715 340 10 340H330C335.523 340 340 335.523 340 330V10C340 4.47715 335.523 0 330 0Z" fill="#FF6060"/>
<path d="M330 0H10C4.47715 0 0 4.47715 0 10V330C0 335.523 4.47715 340 10 340H330C335.523 340 340 335.523 340 330V10C340 4.47715 335.523 0 330 0Z" fill="url(#paint0_linear_262_88)" fill-opacity="0.5"/>
</g>
<defs>
<linearGradient id="paint0_linear_262_88" x1="170" y1="0" x2="170" y2="340" gradientUnits="userSpaceOnUse">
<stop stop-color="white" stop-opacity="0"/>
<stop offset="1"/>
</linearGradient>
<clipPath id="clip0_262_88">
<rect width="340" height="340" fill="white"/>
</clipPath>
</defs>
</svg>
